<svg width="24" height="24" viewBox="0 0 24 24" fill="none" xmlns="http://www.w3.org/2000/svg">
<g id="Icon" clip-path="url(#clip0_215_4100)">
<path id="Color" fill-rule="evenodd" clip-rule="evenodd" d="M15.9785 0C16.1073 1.28072 15.6433 2.54277 14.9652 3.47043C14.2575 4.38366 13.1255 5.08216 12.023 4.99219C11.8786 3.75984 12.4373 2.44941 13.0626 1.64992C13.7695 0.742634 14.997 0.0475283 15.9785 0ZM20.4257 8.10853C20.2876 8.18713 18.0092 9.48362 18.0341 12.1273C18.0628 15.3202 20.9645 16.3757 21 16.3873C20.9827 16.4617 20.5456 17.9106 19.4572 19.3818C18.5484 20.6771 17.5962 21.9433 16.0837 21.9665C15.3647 21.9822 14.8792 21.7852 14.3733 21.5798C13.8456 21.3656 13.2957 21.1424 12.4354 21.1424C11.5233 21.1424 10.949 21.3728 10.3951 21.595C9.91621 21.7871 9.45259 21.973 8.79916 21.9987C7.35871 22.0492 6.25821 20.6159 5.31641 19.3323C3.43369 16.7113 1.9681 11.9463 3.93321 8.70373C4.88541 7.11343 6.62158 6.08935 8.47742 6.06207C9.29465 6.04615 10.0785 6.34633 10.7656 6.60948C11.291 6.81071 11.7599 6.99029 12.144 6.99029C12.4813 6.99029 12.9371 6.81789 13.4683 6.61696C14.3054 6.3003 15.3298 5.91277 16.3734 6.01744C17.0872 6.03728 19.1182 6.28607 20.4285 8.10693L20.4257 8.10853Z" fill="white"/>
</g>
<defs>
<clipPath id="clip0_215_4100">
<rect width="24" height="24" fill="white"/>
</clipPath>
</defs>
</svg>
