<svg width="32" height="32" viewBox="0 0 32 32" fill="none" xmlns="http://www.w3.org/2000/svg">
<path d="M30.6671 21.2935C30.6671 26.4535 26.4937 30.6268 21.3337 30.6268L22.7337 28.2935" stroke="#328DF9" stroke-width="1.5" stroke-linecap="round" stroke-linejoin="round"/>
<path d="M1.33374 10.6268C1.33374 5.46679 5.50707 1.29346 10.6671 1.29346L9.26707 3.62679" stroke="#328DF9" stroke-width="1.5" stroke-linecap="round" stroke-linejoin="round"/>
<path d="M8.82626 17.4268H12.5729C13.3996 17.4268 14.0796 18.1735 14.0796 18.9335C14.0796 19.7602 13.4129 20.4402 12.5729 20.4402H8.82626V17.4268Z" stroke="#328DF9" stroke-width="1.5" stroke-miterlimit="10" stroke-linecap="round" stroke-linejoin="round"/>
<path d="M8.82626 20.4401H13.1196C14.0663 20.4401 14.8396 21.1068 14.8396 21.9468C14.8396 22.7735 14.0663 23.4535 13.1196 23.4535H8.82626V20.4401Z" stroke="#328DF9" stroke-width="1.5" stroke-miterlimit="10" stroke-linecap="round" stroke-linejoin="round"/>
<path d="M11.2263 23.4401V24.9335" stroke="#328DF9" stroke-width="1.5" stroke-miterlimit="10" stroke-linecap="round" stroke-linejoin="round"/>
<path d="M11.2263 15.9335V17.4268" stroke="#328DF9" stroke-width="1.5" stroke-miterlimit="10" stroke-linecap="round" stroke-linejoin="round"/>
<path d="M19.7996 20.4401C19.7996 24.9868 16.1196 28.6667 11.5729 28.6667C7.02625 28.6667 3.34625 24.9868 3.34625 20.4401C3.34625 15.8934 7.02625 12.2134 11.5729 12.2134C11.7863 12.2134 11.9863 12.2267 12.2129 12.2401C16.2529 12.5467 19.4796 15.7734 19.7863 19.8134C19.7863 20.0134 19.7996 20.2134 19.7996 20.4401Z" stroke="#328DF9" stroke-width="1.5" stroke-miterlimit="10" stroke-linecap="round" stroke-linejoin="round"/>
<path d="M28.6658 11.5601C28.6658 16.1067 24.9858 19.7868 20.4392 19.7868H19.7858C19.4792 15.7468 16.2525 12.5201 12.2125 12.2134V11.5601C12.2125 7.01341 15.8925 3.33344 20.4392 3.33344C24.9858 3.33344 28.6658 7.01341 28.6658 11.5601Z" stroke="#328DF9" stroke-width="1.5" stroke-miterlimit="10" stroke-linecap="round" stroke-linejoin="round"/>
</svg>
