<svg width="80" height="80" viewBox="0 0 80 80" fill="none" xmlns="http://www.w3.org/2000/svg">
<path d="M22.683 13.4064C24.5192 13.9072 26.3554 14.2411 28.1916 14.7419C30.0278 15.2426 31.864 15.5765 33.7002 16.0773C34.201 16.2442 34.3679 16.0773 34.5348 15.5765C35.2026 12.7387 35.8703 10.0679 36.538 7.23013C36.7049 6.72935 36.8718 6.56242 37.3726 6.72935C39.0419 7.23013 40.5442 7.56398 42.2135 7.89784C42.7143 8.06477 42.7143 8.23169 42.5474 8.56555C41.8797 11.2364 41.2119 14.0742 40.5442 16.745C40.5442 16.9119 40.5442 17.0789 40.3773 17.4127C41.7127 17.7466 43.2151 18.0804 44.5505 18.4143C44.7174 18.4143 44.8843 18.0804 45.0513 17.9135C45.5521 15.7434 46.0528 13.7403 46.7206 11.5702C46.8875 10.9025 47.0544 10.2348 47.2213 9.56711C47.2213 9.23326 47.3883 9.06633 47.7221 9.23326C49.3914 9.73404 51.0607 10.0679 52.8969 10.5687C53.0638 10.5687 53.0638 10.7356 53.2307 10.7356C52.7299 12.9057 52.2292 14.9088 51.7284 16.9119C51.5614 17.7466 51.3945 18.5812 51.0607 19.4158C50.8937 19.9166 51.0607 20.0835 51.5614 20.2505C53.3976 21.0851 55.2339 21.9198 57.0701 22.7544C58.7393 23.756 60.2417 25.0914 61.4102 26.7606C62.9125 29.2646 63.0794 31.9354 62.4117 34.6062C61.9109 36.4424 61.2432 38.1117 59.9078 39.4471C58.9063 40.4487 57.5708 41.1164 56.2354 41.6172C56.0685 41.6172 55.9016 41.7841 55.5677 41.7841C56.2354 42.2849 56.9031 42.6188 57.5708 43.1195C59.574 44.6219 60.9094 46.4581 61.5771 48.7951C61.9109 50.6313 61.744 52.6344 61.2432 54.4706C60.5755 56.8076 59.7409 58.8107 58.2385 60.6469C56.4023 62.817 54.0654 63.9855 51.3945 64.3193C47.889 64.8201 44.5505 64.4863 41.2119 63.9855C40.7112 63.8186 40.3773 63.9855 40.2104 64.4863C39.5427 67.1571 38.875 69.9949 38.2072 72.6657C38.0403 73.3334 38.0403 73.5004 37.2057 73.1665C35.7033 72.8326 34.0341 72.3319 32.5317 71.998C32.0309 71.8311 32.0309 71.6642 32.1979 71.3303C32.8656 68.4925 33.5333 65.6548 34.3679 62.9839C34.3679 62.6501 34.5348 62.4831 34.201 62.3162C32.8656 61.9824 31.5302 61.6485 30.0278 61.3146C29.694 62.817 29.1932 64.3193 28.8593 65.8217C28.5255 67.324 28.0247 68.8264 27.6908 70.3287C27.5239 70.6626 27.5239 70.8295 27.0231 70.6626C25.3538 70.1618 23.6846 69.8279 22.0153 69.4941C21.5145 69.3272 21.5145 69.1602 21.6814 68.8264C22.3491 65.9886 23.0169 63.1508 23.8515 60.48C23.8515 60.3131 24.0184 60.1461 24.0184 59.8123C20.1791 58.8107 16.3398 57.8092 12.3335 56.8076C12.6674 56.1399 12.8343 55.6391 13.1681 54.9714C13.8358 53.4691 14.5036 51.9667 15.0043 50.6313C15.1713 50.1305 15.3382 50.1305 15.839 50.1305C17.0075 50.4644 18.3429 50.7982 19.5114 50.9651C20.8468 51.299 21.8484 50.6313 22.0153 49.4628C24.1853 40.9495 26.3554 32.4362 28.3585 23.756C28.6924 22.4205 27.8577 20.9182 26.3554 20.4174C24.8531 19.9166 23.3507 19.5828 22.0153 19.2489C21.6814 19.2489 21.5145 19.082 21.6814 18.7481C22.1822 16.9119 22.683 14.9088 23.1838 13.0726C22.5161 13.5734 22.5161 13.5734 22.683 13.4064ZM31.1963 54.6375C31.3632 54.6375 31.5302 54.8045 31.5302 54.8045C34.201 55.4722 37.0388 56.3068 39.8765 56.4737C41.8797 56.6407 43.7159 56.6407 45.5521 55.973C48.7237 54.9714 50.0591 50.7982 48.2229 48.1274C47.3883 46.792 46.0528 45.9573 44.7174 45.1227C41.7127 43.4534 38.2072 42.7857 34.8687 42.118C34.3679 41.9511 34.3679 42.118 34.201 42.6188C33.8671 44.288 33.3664 45.7904 33.0325 47.4597C32.3648 49.7966 31.864 52.1336 31.1963 54.6375ZM45.2182 37.6109C45.5521 37.6109 46.3867 37.444 47.0544 37.2771C50.226 36.6094 51.8953 32.937 50.226 30.0992C49.3914 28.5969 47.889 27.5953 46.3867 26.9276C44.0497 25.926 41.7127 25.4252 39.2088 24.7575C38.708 24.5906 38.5411 24.7575 38.3742 25.2583C37.5395 28.7638 36.7049 32.1023 35.7033 35.6078C35.5364 35.9417 35.7033 36.1086 36.0372 36.2755C36.7049 36.4424 37.2057 36.6094 37.8734 36.7763C40.3773 37.1102 42.5474 37.6109 45.2182 37.6109Z" fill="white"/>
</svg>
