<svg width="80" height="80" viewBox="0 0 80 80" fill="none" xmlns="http://www.w3.org/2000/svg">
<path d="M48.9991 12.3333H24.7318L22.7193 23.5775L44.6234 23.6034C55.4132 23.6034 58.5943 27.5246 58.5034 34.0167C58.4515 37.3406 57.0103 42.9757 56.387 44.8064C54.7251 49.6754 51.3103 55.2196 38.5079 55.2067L17.214 55.1937L15.2015 66.4509H39.4168C47.9604 66.4509 51.5829 65.4511 55.4392 63.6853C63.9697 59.7251 69.0465 51.3114 71.085 40.3269C74.1103 23.967 70.3449 12.3333 48.9991 12.3333Z" fill="white"/>
<path d="M14.2536 33.744C7.89145 33.744 6.98256 37.8859 6.3853 40.3918C5.59327 43.6638 5.33359 45.0012 5.33359 45.0012H30.1851C36.5473 45.0012 37.4562 40.8593 38.0534 38.3533C38.8455 35.0813 39.1052 33.744 39.1052 33.744H14.2536Z" fill="white"/>
</svg>
