<svg width="30" height="22" viewBox="0 0 30 22" fill="none" xmlns="http://www.w3.org/2000/svg">
<path fill-rule="evenodd" clip-rule="evenodd" d="M20.0895 19.1557C20.8467 20.1148 21.7552 21.2 21.7552 21.2C27.3329 21.0233 29.4781 17.3638 29.4781 17.3638C29.3962 12.2473 28.1535 7.21624 25.8438 2.65C23.8113 1.05366 21.3332 0.127706 18.7519 0L18.3986 0.403809C20.6966 1.01533 22.8386 2.10783 24.6829 3.60905C22.3329 2.31375 19.7522 1.49067 17.0862 1.18619C15.3909 0.99937 13.6793 1.01632 11.9881 1.23667C11.8439 1.24102 11.7003 1.2579 11.559 1.28714C9.57761 1.51244 7.64414 2.04904 5.83 2.87714C4.89619 3.30619 4.34095 3.60905 4.34095 3.60905C4.34095 3.60905 6.43571 1.61524 10.9786 0.302858L10.7262 0C8.14486 0.127706 5.66684 1.05366 3.63429 2.65C1.32462 7.21624 0.0819465 12.2473 0 17.3638C0 17.3638 2.12 21.0233 7.69762 21.2C7.69762 21.2 8.63143 20.0643 9.38857 19.1052C7.6142 18.6577 6.05196 17.6043 4.9719 16.1271C5.87477 16.7253 6.83937 17.2245 7.84905 17.6162C9.05006 18.0902 10.2919 18.4535 11.559 18.7014C13.7174 19.1161 15.9342 19.1246 18.0957 18.7267C19.3532 18.5067 20.5811 18.1426 21.7552 17.6414C22.7758 17.2563 23.7495 16.7568 24.6576 16.1524C23.537 17.6612 21.9189 18.725 20.0895 19.1557ZM8.18714 10.3132C8.66371 9.7944 9.31767 9.47342 10.0196 9.41378C10.7215 9.47342 11.3755 9.7944 11.8521 10.3132C12.3286 10.832 12.5931 11.5107 12.5931 12.2152C12.5931 12.9197 12.3286 13.5984 11.8521 14.1172C11.3755 14.636 10.7215 14.957 10.0196 15.0166C9.31767 14.957 8.66371 14.636 8.18714 14.1172C7.71057 13.5984 7.44612 12.9197 7.44612 12.2152C7.44612 11.5107 7.71057 10.832 8.18714 10.3132ZM17.6092 9.76861C18.1019 9.48967 18.6673 9.366 19.2315 9.41378C19.9442 9.44437 20.6156 9.75658 21.0983 10.2818C21.581 10.8071 21.8354 11.5025 21.8058 12.2152C21.8058 12.7814 21.6349 13.3344 21.3154 13.8018C20.9959 14.2692 20.5427 14.6293 20.0151 14.8349C19.4876 15.0405 18.9103 15.082 18.3587 14.954C17.8072 14.826 17.3072 14.5345 16.9241 14.1176C16.541 13.7007 16.2927 13.1779 16.2117 12.6175C16.1307 12.0571 16.2207 11.4854 16.4701 10.9771C16.7194 10.4687 17.1165 10.0475 17.6092 9.76861Z" fill="white"/>
</svg>
