<svg width="24" height="24" viewBox="0 0 24 24" fill="none" xmlns="http://www.w3.org/2000/svg">
<g id="Icon" clip-path="url(#clip0_215_4088)">
<path id="Color" fill-rule="evenodd" clip-rule="evenodd" d="M3.46391 2.11881L12.913 12.0147L3.50928 21.9968C3.23485 21.8143 3.08774 21.4182 3.08525 20.9064C3.08053 19.9257 3.00566 4.35734 3.00003 3.18926C2.9974 2.62901 3.19172 2.28714 3.46391 2.11881ZM16.0292 8.70719L4.53894 2.13229C4.41621 2.06188 4.27683 2.01912 4.13799 2L13.304 11.5997L16.0292 8.70719ZM16.5397 14.9886L13.6973 12.0119L16.5369 8.99788L20.4472 11.235C21.4105 11.7859 20.9178 12.4752 20.4472 12.7454L16.5397 14.9886ZM4.2882 22C4.36831 21.9684 4.45197 21.9281 4.53876 21.8783L16.0314 15.2804L13.3067 12.4269L4.2882 22Z" fill="white"/>
</g>
<defs>
<clipPath id="clip0_215_4088">
<rect width="24" height="24" fill="white"/>
</clipPath>
</defs>
</svg>
