<svg width="32" height="32" viewBox="0 0 32 32" fill="none" xmlns="http://www.w3.org/2000/svg">
<g id="24px_logo-instagram 1" clip-path="url(#clip0_215_6535)">
<path id="Vector" d="M16 2.88267C20.272 2.88267 20.7787 2.89867 22.4653 2.976C24.2867 3.05867 25.976 3.424 27.276 4.724C28.576 6.024 28.9413 7.71333 29.024 9.53467C29.1013 11.2213 29.1173 11.728 29.1173 16C29.1173 20.272 29.1013 20.7787 29.024 22.4653C28.9413 24.2867 28.576 25.976 27.276 27.276C25.976 28.576 24.2867 28.9413 22.4653 29.024C20.7787 29.1013 20.272 29.1173 16 29.1173C11.728 29.1173 11.2213 29.1013 9.53467 29.024C7.71333 28.9413 6.024 28.576 4.724 27.276C3.424 25.976 3.05867 24.2867 2.976 22.4653C2.89867 20.7787 2.88267 20.272 2.88267 16C2.88267 11.728 2.89867 11.2213 2.976 9.53467C3.05867 7.71333 3.424 6.024 4.724 4.724C6.024 3.424 7.71333 3.05867 9.53467 2.976C11.2213 2.89867 11.728 2.88267 16 2.88267ZM16 0C11.6547 0 11.1093 0.0186667 9.40267 0.096C6.80267 0.214667 4.51867 0.852 2.68533 2.68533C0.852 4.51867 0.214667 6.80267 0.096 9.40267C0.0186667 11.1093 0 11.6547 0 16C0 20.3453 0.0186667 20.8907 0.096 22.5973C0.214667 25.1973 0.852 27.4813 2.68533 29.3147C4.51867 31.148 6.80267 31.7853 9.40267 31.904C11.1093 31.9813 11.6547 32 16 32C20.3453 32 20.8907 31.9813 22.5973 31.904C25.1973 31.7853 27.4813 31.148 29.3147 29.3147C31.148 27.4813 31.7853 25.1973 31.904 22.5973C31.9813 20.8907 32 20.3453 32 16C32 11.6547 31.9813 11.1093 31.904 9.40267C31.7853 6.80267 31.148 4.51867 29.3147 2.68533C27.4813 0.852 25.1973 0.214667 22.5973 0.096C20.8907 0.0186667 20.3453 0 16 0Z" fill="white"/>
<path id="Vector_2" d="M16.0002 7.784C11.4628 7.784 7.78418 11.4627 7.78418 16C7.78418 20.5373 11.4628 24.216 16.0002 24.216C20.5375 24.216 24.2162 20.5373 24.2162 16C24.2162 11.4627 20.5375 7.784 16.0002 7.784ZM16.0002 21.3333C13.0548 21.3333 10.6668 18.9453 10.6668 16C10.6668 13.0547 13.0548 10.6667 16.0002 10.6667C18.9455 10.6667 21.3335 13.0547 21.3335 16C21.3335 18.9453 18.9455 21.3333 16.0002 21.3333Z" fill="white"/>
<path id="Vector_3" d="M24.5411 9.37867C25.6015 9.37867 26.4611 8.51905 26.4611 7.45867C26.4611 6.39828 25.6015 5.53867 24.5411 5.53867C23.4807 5.53867 22.6211 6.39828 22.6211 7.45867C22.6211 8.51905 23.4807 9.37867 24.5411 9.37867Z" fill="white"/>
</g>
<defs>
<clipPath id="clip0_215_6535">
<rect width="32" height="32" fill="white"/>
</clipPath>
</defs>
</svg>
