<svg width="32" height="32" viewBox="0 0 32 32" fill="none" xmlns="http://www.w3.org/2000/svg">
<g id="24px_logo-linkedin 1" clip-path="url(#clip0_215_6520)">
<path id="Vector" d="M30.6667 0H1.33333C0.533333 0 0 0.533333 0 1.33333V30.6667C0 31.4667 0.533333 32 1.33333 32H30.6667C31.4667 32 32 31.4667 32 30.6667V1.33333C32 0.533333 31.4667 0 30.6667 0ZM9.46667 27.3333H4.8V12H9.6V27.3333H9.46667ZM7.06667 9.86667C5.6 9.86667 4.26667 8.66667 4.26667 7.06667C4.26667 5.6 5.46667 4.26667 7.06667 4.26667C8.53333 4.26667 9.86667 5.46667 9.86667 7.06667C9.86667 8.66667 8.66667 9.86667 7.06667 9.86667ZM27.3333 27.3333H22.5333V19.8667C22.5333 18.1333 22.5333 15.8667 20.1333 15.8667C17.6 15.8667 17.3333 17.7333 17.3333 19.7333V27.3333H12.5333V12H17.0667V14.1333C17.7333 12.9333 19.2 11.7333 21.6 11.7333C26.4 11.7333 27.3333 14.9333 27.3333 19.0667V27.3333Z" fill="white"/>
</g>
<defs>
<clipPath id="clip0_215_6520">
<rect width="32" height="32" fill="white"/>
</clipPath>
</defs>
</svg>
