<svg width="141" height="51" viewBox="0 0 141 51" fill="none" xmlns="http://www.w3.org/2000/svg">
<path fill-rule="evenodd" clip-rule="evenodd" d="M0 39.4751V0L11.3992 11.3992V50.8744L0 39.4751ZM40.3195 39.4751V0L28.9203 11.3992V50.8744L40.3195 39.4751ZM12.2436 50.8741H28.0759L20.2653 43.0635L12.2436 50.8741Z" fill="url(#paint0_linear_23_1000)"/>
<path d="M68.0444 16.2792V29.7555C68.0444 31.4015 67.9949 32.5723 67.8959 33.2679C67.797 33.9537 67.6338 34.5219 67.4062 34.9726C66.8818 36.0013 66.1199 36.7655 65.1206 37.2652C64.1312 37.7551 62.8548 38 61.2915 38C59.7282 38 58.442 37.7551 57.4328 37.2652C56.4334 36.7655 55.6765 36.0013 55.162 34.9726C54.9246 34.5121 54.7564 33.9341 54.6574 33.2385C54.5585 32.5429 54.509 31.3819 54.509 29.7555V16.2792H58.8279V30.0935C58.8279 31.8472 59.0059 32.9788 59.3621 33.4883C59.7282 33.988 60.3714 34.2378 61.2915 34.2378C62.2315 34.2378 62.8746 33.9831 63.2209 33.4736C63.5771 32.9544 63.7552 31.8277 63.7552 30.0935V16.2792H68.0444Z" fill="white"/>
<path d="M74.5734 37.7355V20.2472H71.2638V16.2792H82.2316V20.2472H78.9219V37.7355H74.5734Z" fill="white"/>
<path d="M91.9366 33.9145C93.0448 33.9145 93.871 33.3413 94.4152 32.1951C94.9692 31.0488 95.2463 29.3244 95.2463 27.022C95.2463 24.7001 94.9692 22.9659 94.4152 21.8196C93.871 20.6733 93.0448 20.1002 91.9366 20.1002C90.8285 20.1002 90.0023 20.6733 89.4581 21.8196C88.914 22.9561 88.6419 24.6903 88.6419 27.022C88.6419 29.344 88.914 31.0733 89.4581 32.2098C90.0023 33.3462 90.8285 33.9145 91.9366 33.9145ZM99.5651 27.316C99.5651 30.5883 98.8725 33.1895 97.4873 35.1196C96.1021 37.0399 94.2519 38 91.9366 38C89.5422 38 87.6772 37.035 86.3414 35.1049C85.0057 33.165 84.3379 30.4707 84.3379 27.022C84.3379 23.5832 85.0107 20.8889 86.3563 18.9392C87.7118 16.9797 89.5719 16 91.9366 16C94.3113 16 96.1763 16.9993 97.5319 18.998C98.8874 20.9967 99.5651 23.7693 99.5651 27.316Z" fill="white"/>
<path d="M107.653 25.5818C107.702 25.5818 107.776 25.5867 107.875 25.5965C107.984 25.6063 108.063 25.6112 108.113 25.6112C109.033 25.6112 109.73 25.3516 110.205 24.8323C110.69 24.3033 110.932 23.5489 110.932 22.5691C110.932 21.5502 110.705 20.8007 110.25 20.3206C109.795 19.8308 109.082 19.5858 108.113 19.5858C108.063 19.5858 107.984 19.5907 107.875 19.6005C107.776 19.6103 107.702 19.6152 107.653 19.6152V25.5818ZM103.467 37.7355V16.2792H107.964C110.349 16.2792 112.12 16.7936 113.277 17.8223C114.435 18.8412 115.014 20.4039 115.014 22.5104C115.014 24.5188 114.455 26.0815 113.337 27.1984C112.219 28.3055 110.65 28.8591 108.632 28.8591C108.375 28.8591 108.177 28.8591 108.038 28.8591C107.91 28.8493 107.786 28.8395 107.667 28.8297L107.653 37.7355H103.467Z" fill="white"/>
<path d="M118.693 37.7355V16.2792H123.101V37.7355H118.693Z" fill="white"/>
<path d="M131.901 30.6373H134.78C134.483 29.1383 134.216 27.5707 133.979 25.9345C133.741 24.2886 133.534 22.5544 133.355 20.7321C133.138 22.3389 132.905 23.9702 132.658 25.6259C132.42 27.2719 132.168 28.9423 131.901 30.6373ZM126.128 37.7355L131.174 16.2792H135.7L140.509 37.7355H136.19L135.463 33.9733H131.114L130.447 37.7355H126.128Z" fill="white"/>
<defs>
<linearGradient id="paint0_linear_23_1000" x1="20.1598" y1="0" x2="20.1598" y2="50.8744" gradientUnits="userSpaceOnUse">
<stop stop-color="#064394"/>
<stop offset="0.505208" stop-color="#3F8594"/>
<stop offset="1" stop-color="#CF418D"/>
</linearGradient>
</defs>
</svg>
