<svg width="32" height="32" viewBox="0 0 32 32" fill="none" xmlns="http://www.w3.org/2000/svg">
<path d="M25.7333 10.56V17.4267C25.7333 21.5333 23.3866 23.2933 19.8666 23.2933H8.14663C7.54663 23.2933 6.97329 23.24 6.43996 23.12C6.10663 23.0667 5.78664 22.9734 5.49331 22.8667C3.49331 22.12 2.27997 20.3867 2.27997 17.4267V10.56C2.27997 6.45331 4.62663 4.69336 8.14663 4.69336H19.8666C22.8533 4.69336 25 5.96002 25.5733 8.85335C25.6666 9.38669 25.7333 9.93331 25.7333 10.56Z" stroke="#328DF9" stroke-width="1.5" stroke-miterlimit="10" stroke-linecap="round" stroke-linejoin="round"/>
<path d="M29.7346 14.5603V21.427C29.7346 25.5337 27.3879 27.2936 23.8679 27.2936H12.1479C11.1612 27.2936 10.2679 27.1604 9.49457 26.867C7.9079 26.2804 6.82789 25.067 6.44122 23.1204C6.97456 23.2404 7.54789 23.2936 8.14789 23.2936H19.8679C23.3879 23.2936 25.7346 21.5337 25.7346 17.427V10.5603C25.7346 9.93366 25.6812 9.3737 25.5746 8.8537C28.1079 9.38703 29.7346 11.1737 29.7346 14.5603Z" stroke="#328DF9" stroke-width="1.5" stroke-miterlimit="10" stroke-linecap="round" stroke-linejoin="round"/>
<path d="M13.9975 17.52C15.9415 17.52 17.5175 15.944 17.5175 13.9999C17.5175 12.0559 15.9415 10.4799 13.9975 10.4799C12.0535 10.4799 10.4775 12.0559 10.4775 13.9999C10.4775 15.944 12.0535 17.52 13.9975 17.52Z" stroke="#328DF9" stroke-width="1.5" stroke-miterlimit="10" stroke-linecap="round" stroke-linejoin="round"/>
<path d="M6.37372 11.0668V16.9335" stroke="#328DF9" stroke-width="1.5" stroke-miterlimit="10" stroke-linecap="round" stroke-linejoin="round"/>
<path d="M21.6287 11.0671V16.9338" stroke="#328DF9" stroke-width="1.5" stroke-miterlimit="10" stroke-linecap="round" stroke-linejoin="round"/>
</svg>
