<svg width="80" height="80" viewBox="0 0 80 80" fill="none" xmlns="http://www.w3.org/2000/svg">
<path d="M46.9464 16.0381C43.5123 17.9931 41.4789 21.5235 41.4789 25.2464C41.4789 27.2014 42.289 29.1716 43.3032 30.9293C44.1133 32.4994 44.5105 35.2396 41.683 36.6122C39.6653 37.7822 37.0256 37.0022 35.8183 35.0421C34.6107 33.472 33.1943 31.902 31.37 30.7318C27.9359 28.7768 23.8849 28.7768 20.4505 30.7318C17.0162 32.6868 14.988 36.226 14.988 39.9499C14.988 43.6737 17.0057 47.2029 20.4497 49.1632C23.8838 51.1182 27.9349 51.1182 31.3692 49.1632C33.1936 48.1806 34.6097 46.6207 35.6137 44.8528C36.4238 43.4803 38.6506 41.7127 41.4784 43.2827C43.4961 44.4527 44.1023 47.0106 43.0986 48.9656C42.0846 50.7332 41.4784 52.6936 41.4784 54.6486C41.4784 58.3765 43.4961 61.9015 46.9458 63.8568C50.3799 65.8118 54.431 65.8118 57.8653 63.8568C61.2997 61.9018 63.3333 58.3714 63.3333 54.6486C63.3333 50.9257 61.3104 47.3956 57.8659 45.4353C56.0416 44.4527 54.0186 44.0627 51.7971 44.0627C49.9728 44.0627 47.5526 42.8927 47.5526 39.9499C47.5526 37.5948 49.377 35.837 51.7971 35.837C53.8148 35.837 56.0416 35.447 57.8659 34.4645C61.3 32.5095 63.3333 28.9791 63.3333 25.2565C63.3333 21.5339 61.3104 18.0035 57.8659 16.0483C56.2456 15.0657 54.2277 14.6757 52.4042 14.6757C50.5903 14.6656 48.5569 15.0657 46.9471 16.0381" fill="white"/>
</svg>
