<svg width="32" height="32" viewBox="0 0 32 32" fill="none" xmlns="http://www.w3.org/2000/svg">
<g id="24px_telegram 1" clip-path="url(#clip0_215_6558)">
<path id="Vector" d="M31.9376 3.36934C31.9117 3.25118 31.855 3.14197 31.7733 3.05276C31.6915 2.96355 31.5877 2.89752 31.4723 2.86134C31.0518 2.77807 30.6168 2.80892 30.2123 2.95067C30.2123 2.95067 2.17362 13.0293 0.572283 14.1453C0.228283 14.3853 0.112283 14.5253 0.0549493 14.6893C-0.222384 15.4893 0.640283 15.8333 0.640283 15.8333L7.86695 18.188C7.98914 18.2099 8.11479 18.2026 8.23362 18.1667C9.87628 17.128 24.7669 7.72134 25.6323 7.40534C25.7656 7.36534 25.8683 7.40534 25.8416 7.50534C25.4976 8.71201 12.6296 20.1427 12.5589 20.212C12.5245 20.2402 12.4977 20.2766 12.4809 20.3178C12.4642 20.359 12.458 20.4038 12.4629 20.448L11.7883 27.504C11.7883 27.504 11.5056 29.7 13.7016 27.504C15.2589 25.9453 16.7536 24.6547 17.5003 24.0267C19.9856 25.7427 22.6589 27.64 23.8123 28.6333C24.0063 28.8211 24.2361 28.9679 24.4882 29.0648C24.7402 29.1617 25.0091 29.2068 25.2789 29.1973C25.6112 29.1568 25.9233 29.0161 26.1736 28.7939C26.424 28.5717 26.6007 28.2785 26.6803 27.9533C26.6803 27.9533 31.7869 7.38934 31.9576 4.63467C31.9749 4.36801 31.9976 4.19201 32.0003 4.00667C32.0086 3.79236 31.9875 3.57793 31.9376 3.36934Z" fill="white"/>
</g>
<defs>
<clipPath id="clip0_215_6558">
<rect width="32" height="32" fill="white"/>
</clipPath>
</defs>
</svg>
