<svg width="33" height="32" viewBox="0 0 33 32" fill="none" xmlns="http://www.w3.org/2000/svg">
<g id="24px_logo-youtube 1" clip-path="url(#clip0_215_6551)">
<path id="Vector" d="M32.2118 9.6C32.2118 9.6 31.9452 7.33334 30.8785 6.4C29.6785 5.06667 28.3452 5.06667 27.6785 5.06667C23.1452 4.8 16.4785 4.8 16.4785 4.8C16.4785 4.8 9.81185 4.8 5.27852 5.06667C4.61185 5.2 3.27852 5.2 2.07852 6.4C1.14518 7.33334 0.745182 9.6 0.745182 9.6C0.745182 9.6 0.478516 12.1333 0.478516 14.8V17.2C0.478516 19.7333 0.745182 22.4 0.745182 22.4C0.745182 22.4 1.01185 24.6667 2.07852 25.6C3.27852 26.9333 4.87852 26.8 5.54518 26.9333C8.07852 27.2 16.4785 27.2 16.4785 27.2C16.4785 27.2 23.1452 27.2 27.6785 26.8C28.3452 26.6667 29.6785 26.6667 30.8785 25.4667C31.8118 24.5333 32.2118 22.2667 32.2118 22.2667C32.2118 22.2667 32.4785 19.7333 32.4785 17.0667V14.6667C32.4785 12.1333 32.2118 9.6 32.2118 9.6ZM13.1452 20.1333V11.2L21.8118 15.7333L13.1452 20.1333Z" fill="white"/>
</g>
<defs>
<clipPath id="clip0_215_6551">
<rect width="32" height="32" fill="white" transform="translate(0.478516)"/>
</clipPath>
</defs>
</svg>
